<svg xmlns="http://www.w3.org/2000/svg" width="50" height="38" viewBox="0 0 50 38" fill="none"><rect width="50" height="37.5" rx="8" fill="url(#paint0_linear_501_71)"></rect><path d="M31.4985 12.7877L18.201 17.9155C17.2935 18.28 17.2987 18.7862 18.0345 19.012L21.4485 20.077L29.3475 15.0932C29.721 14.866 30.0622 14.9882 29.7817 15.2372L23.382 21.013H23.3805L23.382 21.0137L23.1465 24.5327C23.4915 24.5327 23.6437 24.3745 23.8372 24.1877L25.4955 22.5752L28.9447 25.123C29.5807 25.4732 30.0375 25.2932 30.1957 24.5342L32.46 13.8632C32.6917 12.934 32.1052 12.5132 31.4985 12.7877Z" fill="white"></path><defs><linearGradient id="paint0_linear_501_71" x1="22.5054" y1="22.3011" x2="54.1959" y2="-3.70424" gradientUnits="userSpaceOnUse"><stop offset="0.0378357" stop-color="#23A0DC"></stop><stop offset="0.447375" stop-color="#6ACFFF"></stop><stop offset="0.752116" stop-color="#93DCFF"></stop></linearGradient></defs></svg>