<svg xmlns="http://www.w3.org/2000/svg" width="50" height="38" viewBox="0 0 50 38" fill="none"><rect width="50" height="37.5" rx="8" fill="url(#paint0_linear_501_65)"></rect><g clip-path="url(#clip0_501_65)"><path fill-rule="evenodd" clip-rule="evenodd" d="M29.0613 20.7865C28.8378 20.6747 27.742 20.1362 27.538 20.0612C27.334 19.987 27.1855 19.9502 27.0363 20.1737C26.8877 20.3957 26.461 20.8982 26.3312 21.0467C26.2007 21.196 26.071 21.214 25.8482 21.103C25.6255 20.9905 24.907 20.7557 24.0557 19.9967C23.3935 19.4057 22.9458 18.676 22.816 18.4525C22.6863 18.2297 22.8018 18.109 22.9135 17.998C23.014 17.8982 23.1362 17.7377 23.248 17.608C23.3597 17.4775 23.3965 17.3845 23.4708 17.2352C23.5458 17.0867 23.5082 16.957 23.452 16.8452C23.3965 16.7335 22.951 15.6362 22.765 15.19C22.5843 14.7557 22.4005 14.815 22.264 14.8075C22.1335 14.8015 21.985 14.8 21.8365 14.8C21.688 14.8 21.4465 14.8555 21.2425 15.079C21.0377 15.3017 20.4625 15.841 20.4625 16.9382C20.4625 18.0347 21.2605 19.0945 21.3723 19.2437C21.484 19.3922 22.9435 21.6437 25.1793 22.609C25.7118 22.8385 26.1265 22.9757 26.4497 23.0777C26.9837 23.248 27.4698 23.224 27.8538 23.1662C28.2812 23.1025 29.1723 22.627 29.3583 22.1065C29.5435 21.586 29.5435 21.1397 29.488 21.0467C29.4325 20.9537 29.284 20.8982 29.0605 20.7865H29.0613ZM24.9948 26.3387H24.9918C23.6638 26.339 22.3603 25.982 21.2177 25.3052L20.9478 25.1447L18.1413 25.8812L18.8905 23.1452L18.7143 22.8647C17.9719 21.683 17.579 20.3153 17.581 18.9197C17.5825 14.8322 20.908 11.5067 24.9977 11.5067C26.9777 11.5067 28.8393 12.2792 30.2388 13.6802C30.929 14.3677 31.4762 15.1851 31.8485 16.0854C32.2208 16.9856 32.4109 17.9508 32.4078 18.925C32.4062 23.0125 29.0807 26.3387 24.9948 26.3387ZM31.3038 12.616C30.4774 11.7842 29.4942 11.1246 28.4111 10.6756C27.328 10.2265 26.1665 9.99688 24.994 9.99997C20.0785 9.99997 16.0765 14.0012 16.075 18.919C16.0742 20.491 16.4845 22.0255 17.2652 23.3777L16 28L20.728 26.7595C22.0359 27.4721 23.5016 27.8454 24.991 27.8455H24.9948C29.9102 27.8455 33.9123 23.8442 33.9137 18.9257C33.9174 17.7537 33.6886 16.5925 33.2406 15.5095C32.7926 14.4264 32.1343 13.443 31.3038 12.616Z" fill="white"></path></g><defs><linearGradient id="paint0_linear_501_65" x1="22.5054" y1="22.3011" x2="54.1959" y2="-3.70424" gradientUnits="userSpaceOnUse"><stop offset="0.0378357" stop-color="#5DDA74"></stop><stop offset="0.447375" stop-color="#81FA97"></stop><stop offset="0.752116" stop-color="#B5FFC2"></stop></linearGradient><clipPath id="clip0_501_65"><rect x="16" y="10" width="18" height="18" fill="white"></rect></clipPath></defs></svg>